<?xml version="1.0" standalone="no"?>
<!DOCTYPE svg PUBLIC "-//W3C//DTD SVG 20010904//EN"
 "http://www.w3.org/TR/2001/REC-SVG-20010904/DTD/svg10.dtd">
<svg version="1.0" xmlns="http://www.w3.org/2000/svg"
 width="1280.000000pt" height="720.000000pt" viewBox="0 0 1280.000000 720.000000"
 preserveAspectRatio="xMidYMid meet">

<g transform="translate(0.000000,720.000000) scale(0.100000,-0.100000)"
fill="#000000" stroke="none">
<path d="M7261 7196 c7 -6 310 -168 1079 -576 179 -95 363 -193 409 -217 167
-90 518 -277 621 -331 58 -30 191 -101 295 -157 105 -56 249 -133 320 -171 72
-37 204 -108 295 -156 l164 -88 61 47 c290 226 318 246 331 237 7 -5 172 -211
366 -459 195 -247 439 -558 543 -690 208 -263 238 -301 275 -350 14 -19 140
-178 280 -356 140 -177 306 -386 368 -465 62 -79 117 -144 122 -144 7 0 10
706 10 1940 l0 1940 -2772 0 c-1524 0 -2769 -2 -2767 -4z"/>
<path d="M567 5912 c-19 -21 -57 -125 -57 -154 0 -11 23 -52 50 -91 l50 -72
-16 -48 c-16 -47 -16 -47 -60 -47 -24 0 -44 2 -44 4 0 2 7 23 15 46 8 23 15
44 15 47 0 2 -17 3 -37 1 -36 -3 -38 -5 -57 -64 -28 -90 -24 -94 84 -94 50 0
100 4 110 10 11 6 29 42 45 89 30 90 30 88 -37 178 -42 58 -43 60 -26 114 11
38 13 39 55 39 23 0 43 -2 43 -4 0 -2 -7 -22 -15 -45 -16 -46 -12 -51 34 -48
21 2 28 12 44 63 29 90 26 94 -86 94 -78 0 -97 -3 -110 -18z"/>
<path d="M2114 5698 c-42 -128 -79 -239 -82 -246 -3 -10 5 -13 33 -10 l38 3
79 234 c43 128 78 237 78 242 0 5 -15 9 -34 9 l-34 0 -78 -232z"/>
<path d="M2607 5913 c-8 -10 -26 -48 -38 -85 -15 -43 -30 -69 -41 -71 -25 -7
-40 -49 -22 -63 11 -9 7 -30 -26 -130 -22 -65 -40 -119 -40 -121 0 -2 15 -3
34 -3 l34 0 42 125 c37 112 44 125 65 125 17 0 26 8 34 31 9 28 8 32 -10 36
-11 3 -18 11 -15 18 2 7 10 31 17 54 10 34 16 41 38 41 20 0 29 7 38 30 l11
30 -52 0 c-38 0 -57 -5 -69 -17z"/>
<path d="M4331 5693 c-44 -131 -81 -241 -81 -245 0 -5 15 -8 34 -8 34 0 34 0
67 95 18 52 37 95 41 95 4 0 8 -19 8 -42 0 -24 3 -67 6 -95 l7 -53 40 0 40 0
-6 63 c-4 34 -9 91 -13 127 l-6 65 86 112 c47 61 86 114 86 117 0 3 -17 6 -37
6 -36 0 -41 -5 -103 -91 -36 -50 -68 -93 -72 -95 -4 -3 6 35 23 83 16 48 29
90 29 95 0 4 -15 8 -34 8 l-33 0 -82 -237z"/>
<path d="M831 5849 c-16 -46 -15 -49 23 -49 29 0 36 4 45 31 16 46 15 49 -23
49 -29 0 -36 -4 -45 -31z"/>
<path d="M4171 5867 c-5 -7 -12 -24 -16 -40 -7 -26 -5 -27 28 -27 30 0 37 4
46 31 6 18 11 35 11 39 0 12 -58 9 -69 -3z"/>
<path d="M6581 5849 c-16 -46 -15 -49 23 -49 29 0 36 4 45 31 16 46 15 49 -23
49 -29 0 -36 -4 -45 -31z"/>
<path d="M1231 5800 c-7 -22 -18 -40 -26 -40 -16 0 -35 -30 -35 -55 0 -9 5
-13 10 -10 17 10 11 -15 -26 -121 -20 -57 -34 -110 -31 -119 5 -11 21 -15 56
-15 46 0 50 2 60 30 9 27 8 30 -10 30 -25 0 -24 9 7 105 28 82 38 97 60 88 8
-3 18 6 24 22 14 38 13 45 -11 45 -15 0 -19 4 -15 16 3 9 9 27 12 40 6 22 3
24 -28 24 -32 0 -36 -3 -47 -40z"/>
<path d="M751 5607 c-28 -83 -51 -155 -51 -160 0 -4 15 -7 33 -7 l33 0 48 148
c27 81 51 153 53 160 4 8 -6 12 -30 12 l-35 0 -51 -153z"/>
<path d="M944 5750 c-21 -8 -54 -82 -54 -120 0 -9 20 -30 45 -48 60 -42 61
-87 2 -87 -25 -1 -27 2 -21 28 6 27 4 28 -27 25 -27 -3 -34 -9 -46 -43 -20
-60 -15 -65 75 -65 91 0 106 8 127 69 22 64 19 74 -31 110 -56 41 -59 74 -6
79 31 3 32 2 26 -23 -6 -25 -5 -26 26 -23 28 3 35 9 47 42 9 27 10 43 3 51
-12 14 -133 17 -166 5z"/>
<path d="M1381 5743 c-24 -20 -115 -268 -107 -290 4 -9 29 -13 89 -13 91 0
100 5 125 63 15 35 9 47 -24 47 -19 0 -29 -8 -37 -30 -10 -25 -17 -30 -45 -30
-30 0 -33 2 -26 23 21 68 20 67 82 67 69 0 81 10 106 84 29 89 24 96 -79 96
-45 0 -69 -5 -84 -17z m99 -52 c0 -5 -4 -21 -10 -35 -7 -20 -16 -26 -40 -26
-33 0 -35 5 -20 44 7 20 16 26 40 26 16 0 30 -4 30 -9z"/>
<path d="M1620 5726 c-6 -17 -31 -88 -55 -158 l-44 -128 37 0 38 0 38 118 c21
64 41 120 45 125 13 13 52 16 57 4 2 -7 -14 -65 -35 -130 l-40 -118 36 3 35 3
42 120 c41 117 43 120 74 123 18 2 32 -1 32 -6 0 -5 -18 -59 -40 -121 -22 -61
-40 -114 -40 -116 0 -3 15 -5 34 -5 23 0 36 6 41 18 13 32 95 276 95 283 0 15
-36 19 -87 10 -29 -4 -55 -5 -58 -2 -4 3 -48 6 -100 7 l-94 2 -11 -32z"/>
<path d="M2250 5726 c-6 -17 -31 -88 -55 -158 l-44 -128 37 0 38 0 40 123 c40
120 41 122 72 125 18 2 32 -1 32 -5 0 -5 -18 -62 -40 -127 l-39 -117 36 3 37
3 50 147 c28 80 48 149 44 153 -4 4 -50 8 -102 10 l-95 3 -11 -32z"/>
<path d="M2711 5743 c-24 -20 -115 -268 -107 -290 7 -18 165 -18 189 0 26 18
110 277 96 294 -18 21 -151 18 -178 -4z m99 -56 c0 -7 -13 -51 -28 -97 -29
-84 -29 -85 -65 -88 l-37 -3 35 96 c19 53 35 98 35 100 0 3 14 5 30 5 18 0 30
-5 30 -13z"/>
<path d="M2970 5756 c0 -1 -25 -73 -55 -159 l-55 -157 38 0 38 0 40 122 c36
111 43 123 68 129 27 8 28 8 21 -32 l-7 -40 33 3 c30 3 34 7 52 61 10 32 16
61 13 64 -5 6 -186 14 -186 9z"/>
<path d="M3210 5726 c-6 -17 -31 -88 -55 -158 l-44 -128 37 0 38 0 38 118 c21
64 45 122 52 128 15 12 54 8 54 -5 0 -4 -18 -60 -40 -125 l-39 -117 36 3 35 3
39 110 c21 61 42 116 47 124 10 17 62 22 62 6 0 -7 -18 -62 -40 -124 -22 -61
-40 -114 -40 -117 0 -3 17 -4 37 -2 l36 3 49 145 c26 79 48 148 48 152 0 14
-36 18 -87 9 -29 -4 -55 -5 -58 -2 -4 3 -48 6 -100 7 l-94 2 -11 -32z"/>
<path d="M3637 5749 c-16 -9 -47 -65 -47 -84 0 -3 15 -5 34 -5 25 0 35 5 39
20 4 15 14 20 36 20 34 0 36 -5 21 -44 -9 -24 -14 -26 -68 -26 -44 0 -63 -5
-74 -17 -19 -22 -61 -149 -54 -162 3 -5 48 -9 99 -9 l93 1 47 136 c52 151 54
166 31 175 -26 10 -138 6 -157 -5z m53 -178 c0 -4 -5 -22 -11 -38 -8 -25 -17
-32 -45 -35 -39 -5 -39 -3 -19 46 13 30 20 36 45 36 17 0 30 -4 30 -9z"/>
<path d="M3894 5750 c-25 -10 -59 -99 -50 -127 4 -10 24 -31 47 -47 51 -36 52
-69 1 -74 -31 -3 -32 -2 -26 23 6 25 5 26 -26 23 -29 -3 -35 -9 -47 -43 -20
-60 -15 -65 75 -65 91 0 106 8 127 69 22 64 19 74 -31 110 -56 41 -59 74 -6
79 31 3 32 2 26 -23 -6 -25 -5 -26 26 -23 28 3 35 9 47 42 9 26 10 43 3 51
-12 14 -135 18 -166 5z"/>
<path d="M4081 5607 c-28 -83 -51 -155 -51 -160 0 -4 15 -7 33 -7 l33 0 48
148 c27 81 51 153 53 160 4 8 -6 12 -30 12 l-35 0 -51 -153z"/>
<path d="M4631 5743 c-24 -20 -115 -268 -107 -290 4 -9 29 -13 89 -13 90 0
100 5 125 63 18 41 15 47 -18 47 -23 0 -33 -7 -45 -30 -12 -23 -22 -30 -46
-30 -27 0 -30 3 -23 23 21 68 20 67 82 67 69 0 81 10 106 84 29 89 24 96 -79
96 -45 0 -69 -5 -84 -17z m99 -52 c0 -5 -4 -21 -10 -35 -7 -20 -16 -26 -40
-26 -33 0 -35 5 -20 44 7 20 16 26 40 26 16 0 30 -4 30 -9z"/>
<path d="M4885 5741 c-22 -55 -135 -397 -135 -408 0 -10 10 -13 32 -11 29 3
34 8 52 61 l21 57 42 0 c61 0 90 15 111 57 29 56 87 241 79 249 -4 4 -49 8
-101 9 -79 2 -96 0 -101 -14z m115 -60 c0 -16 -51 -155 -61 -167 -12 -15 -59
-20 -59 -7 0 23 55 170 67 179 14 12 53 8 53 -5z"/>
<path d="M5167 5738 c-29 -29 -114 -275 -100 -289 6 -6 47 -9 93 -7 75 3 85 5
101 28 10 14 21 37 24 52 6 25 5 27 -25 26 -24 -1 -35 -8 -46 -30 -11 -21 -22
-28 -45 -28 -27 0 -30 3 -23 23 21 68 20 67 82 67 69 0 81 10 106 84 29 90 24
96 -80 96 -54 0 -69 -4 -87 -22z m103 -47 c0 -5 -4 -21 -10 -35 -7 -20 -16
-26 -40 -26 -33 0 -35 5 -20 44 7 20 16 26 40 26 16 0 30 -4 30 -9z"/>
<path d="M5446 5743 c-13 -7 -27 -20 -31 -30 -22 -55 -75 -220 -75 -235 0 -23
30 -38 79 -38 l40 0 -10 -30 c-9 -24 -17 -30 -40 -30 -23 0 -29 5 -29 21 0 17
-5 20 -32 17 -29 -3 -34 -8 -42 -41 -13 -50 -1 -58 84 -56 107 3 99 -7 174
216 37 109 66 203 64 208 -4 15 -153 13 -182 -2z m94 -58 c0 -6 -13 -49 -28
-95 -27 -81 -30 -85 -60 -88 -19 -2 -32 1 -32 8 0 25 54 166 67 177 18 14 53
13 53 -2z"/>
<path d="M5707 5749 c-16 -9 -47 -65 -47 -84 0 -3 15 -5 34 -5 25 0 35 5 39
20 4 15 14 20 36 20 34 0 36 -5 21 -44 -9 -24 -14 -26 -68 -26 -44 0 -63 -5
-74 -17 -19 -22 -61 -149 -54 -162 3 -5 48 -9 99 -9 l93 1 47 136 c52 149 55
166 31 175 -26 10 -138 6 -157 -5z m53 -178 c0 -4 -5 -22 -11 -40 -9 -27 -16
-31 -45 -31 -39 0 -38 -3 -19 44 13 30 20 36 45 36 17 0 30 -4 30 -9z"/>
<path d="M5935 5748 c-3 -7 -13 -79 -23 -160 l-18 -148 32 0 c30 0 35 5 69 73
21 39 41 76 44 80 4 4 2 -28 -4 -73 l-12 -80 33 0 c31 0 34 5 115 152 46 84
86 156 88 161 2 5 -12 7 -30 5 -32 -3 -37 -9 -79 -90 -25 -47 -48 -89 -51 -92
-3 -4 0 26 7 66 19 109 18 118 -11 118 -21 0 -32 -14 -74 -97 -28 -54 -50 -96
-50 -93 -1 3 6 40 14 83 8 43 15 84 15 91 0 16 -59 20 -65 4z"/>
<path d="M6317 5749 c-16 -9 -47 -65 -47 -84 0 -3 15 -5 34 -5 25 0 35 5 39
20 4 15 14 20 36 20 34 0 36 -5 21 -44 -9 -24 -14 -26 -68 -26 -44 0 -63 -5
-74 -17 -19 -22 -61 -149 -54 -162 3 -5 48 -9 99 -9 l94 1 46 136 c52 149 55
166 31 175 -26 10 -138 6 -157 -5z m53 -178 c0 -4 -5 -22 -11 -38 -8 -25 -17
-32 -45 -35 -39 -5 -39 -3 -19 46 13 30 20 36 45 36 17 0 30 -4 30 -9z"/>
<path d="M6498 5600 l-54 -160 36 0 36 0 48 148 c27 81 51 153 53 160 4 8 -6
12 -30 12 l-35 0 -54 -160z"/>
<path d="M6687 5749 c-16 -9 -47 -65 -47 -84 0 -3 15 -5 34 -5 25 0 35 5 39
20 4 15 14 20 36 20 34 0 36 -5 21 -44 -9 -24 -14 -26 -68 -26 -44 0 -63 -5
-74 -17 -19 -22 -61 -149 -54 -162 3 -5 48 -9 99 -9 l94 1 46 136 c52 149 55
166 31 175 -26 10 -138 6 -157 -5z m53 -178 c0 -4 -5 -22 -11 -40 -9 -27 -16
-31 -45 -31 -39 0 -38 -3 -19 44 13 30 20 36 45 36 17 0 30 -4 30 -9z"/>
<path d="M6920 5726 c-6 -17 -31 -88 -55 -158 l-44 -128 37 0 38 0 40 123 c40
120 41 122 72 125 18 2 32 -1 32 -5 0 -5 -18 -62 -40 -127 l-39 -117 36 3 37
3 48 139 c27 77 47 147 46 155 -3 13 -21 16 -100 17 l-97 1 -11 -31z"/>
<path d="M673 5306 c-185 -47 -344 -211 -382 -394 -23 -110 -4 -251 46 -344
38 -71 129 -166 199 -208 194 -117 461 -83 623 79 114 114 157 228 148 396 -6
122 -28 185 -100 281 -58 76 -143 140 -234 174 -73 27 -224 36 -300 16z m270
-36 c129 -40 238 -136 297 -261 87 -186 50 -396 -95 -543 -100 -102 -205 -146
-351 -146 -203 0 -378 120 -455 311 -26 66 -36 203 -20 278 24 114 105 232
209 303 111 77 279 100 415 58z"/>
<path d="M700 5041 l0 -79 44 -22 c52 -25 64 -37 82 -87 l13 -38 1 44 c0 30
-5 48 -17 56 -27 20 -9 45 32 45 l35 0 0 80 0 80 -95 0 -95 0 0 -79z"/>
<path d="M558 4798 l3 -138 42 1 c23 1 34 3 24 6 -10 3 -22 16 -28 29 -12 33
-12 175 0 207 9 22 7 25 -17 29 l-27 4 3 -138z"/>
<path d="M659 4928 c83 -19 121 -62 121 -138 0 -72 -30 -107 -105 -123 -13 -3
-9 -5 11 -6 37 -1 93 34 111 69 7 14 13 48 13 77 0 48 -3 54 -40 86 -41 34
-78 48 -129 46 -18 -1 -13 -4 18 -11z"/>
<path d="M885 4932 c-19 -7 -20 -16 -20 -140 0 -125 1 -132 20 -132 18 0 20 5
17 55 -4 52 -2 55 19 55 16 0 42 -20 79 -60 31 -34 64 -60 75 -60 17 0 15 4
-10 28 -17 15 -43 44 -59 64 l-28 37 21 34 c12 19 21 44 21 56 0 26 -34 61
-60 61 -18 0 -17 -2 5 -25 26 -25 32 -63 15 -96 -8 -13 -21 -19 -46 -19 l-36
0 4 75 c2 41 3 75 3 74 0 -1 -9 -4 -20 -7z"/>
<path d="M490 4800 l0 -100 25 0 25 0 0 100 0 100 -25 0 -25 0 0 -100z"/>
<path d="M620 4800 l0 -100 48 0 c66 0 87 23 86 93 0 43 -5 54 -32 79 -23 19
-43 28 -67 28 l-35 0 0 -100z"/>
<path d="M920 4855 c0 -39 3 -46 18 -43 13 2 17 13 17 43 0 30 -4 41 -17 43
-15 3 -18 -4 -18 -43z"/>
<path d="M1040 4868 c-1 -18 -7 -44 -15 -58 -19 -34 -19 -34 16 -75 51 -58 59
-49 59 65 l0 100 -30 0 c-27 0 -30 -3 -30 -32z"/>
<path d="M832 4772 c-4 -51 -58 -117 -103 -127 -29 -7 -29 -7 -29 -86 l0 -79
95 0 95 0 0 75 c0 67 -2 75 -19 75 -32 0 -51 11 -51 30 0 10 5 20 11 22 6 2 9
25 6 58 -2 30 -4 45 -5 32z"/>
<path d="M920 4725 c0 -20 5 -25 25 -25 22 0 24 3 16 19 -17 31 -41 34 -41 6z"/>
<path d="M1825 4954 c-16 -7 -24 -13 -17 -14 10 0 12 -29 10 -135 l-3 -135 34
0 c26 0 31 3 23 13 -7 8 -13 70 -14 148 l-3 136 -30 -13z"/>
<path d="M1610 4949 c14 -6 35 -15 48 -20 36 -14 62 -67 62 -127 0 -48 -4 -58
-34 -88 -35 -35 -83 -45 -116 -24 -24 15 -28 221 -5 243 15 16 13 17 -37 17
-41 -1 -49 -3 -35 -11 15 -9 17 -26 17 -134 0 -89 -3 -125 -12 -128 -7 -3 26
-6 73 -6 74 -1 91 2 119 22 72 48 97 122 63 187 -22 41 -62 66 -123 74 -38 5
-41 4 -20 -5z"/>
<path d="M2830 4951 c0 -6 4 -13 10 -16 6 -3 7 1 4 9 -7 18 -14 21 -14 7z"/>
<path d="M2405 4834 c-16 -7 -24 -13 -17 -14 10 0 13 -18 10 -75 l-3 -75 34 0
c26 0 31 3 23 13 -6 7 -12 47 -14 88 l-3 76 -30 -13z"/>
<path d="M1885 4830 c-3 -5 3 -10 13 -10 11 0 24 -6 30 -13 13 -15 19 -108 8
-125 -5 -8 4 -12 30 -12 30 0 35 3 26 12 -7 7 -12 35 -12 63 0 63 -20 95 -60
95 -16 0 -32 -4 -35 -10z"/>
<path d="M2056 4824 c-19 -19 -20 -24 -3 -24 7 0 18 9 25 20 15 24 0 27 -22 4z"/>
<path d="M2124 4818 c9 -14 13 -43 12 -73 -3 -56 7 -75 37 -75 16 0 18 3 9 12
-7 7 -12 39 -12 75 0 51 -3 64 -19 73 -32 17 -43 12 -27 -12z"/>
<path d="M2250 4832 c-11 -5 -15 -25 -15 -85 l0 -77 34 0 c28 0 32 2 21 14 -6
8 -11 39 -10 68 3 94 3 95 -30 80z"/>
<path d="M2301 4826 c-9 -11 -6 -15 15 -20 32 -8 57 10 34 24 -21 13 -36 12
-49 -4z"/>
<path d="M2464 4828 c-5 -8 -2 -9 9 -5 32 12 49 -21 45 -90 l-3 -63 35 1 c19
0 29 3 23 6 -9 3 -13 27 -13 68 0 53 3 66 19 75 45 23 66 -12 59 -100 -3 -48
-2 -50 23 -50 l25 0 -8 72 c-5 40 -14 78 -20 85 -14 17 -59 16 -85 -2 -18 -13
-22 -13 -33 0 -15 18 -66 20 -76 3z"/>
<path d="M2758 4829 c-21 -12 -24 -29 -4 -29 7 0 16 9 19 20 3 11 4 20 4 20
-1 0 -10 -5 -19 -11z"/>
<path d="M2814 4825 c11 -11 15 -33 14 -73 -2 -69 5 -82 40 -82 23 1 25 2 9
11 -14 8 -17 22 -15 69 2 63 -11 90 -44 90 -17 0 -18 -2 -4 -15z"/>
<path d="M2901 4821 c5 -9 23 -47 40 -86 30 -69 31 -70 44 -45 7 14 10 27 5
30 -13 8 -43 89 -37 102 3 9 -6 13 -28 14 -27 0 -31 -2 -24 -15z"/>
<path d="M3016 4819 c9 -11 14 -27 11 -39 -3 -11 -1 -18 4 -14 5 3 19 -19 32
-48 l24 -53 16 32 c20 39 21 44 4 37 -15 -5 -49 69 -41 89 3 8 -8 12 -31 13
-33 0 -34 -1 -19 -17z"/>
<path d="M3138 4815 c4 -24 5 -24 18 -8 18 25 17 33 -5 33 -14 0 -17 -6 -13
-25z"/>
<path d="M3205 4820 c-18 -19 -17 -20 2 -20 12 0 23 8 26 20 3 11 2 20 -2 20
-5 0 -16 -9 -26 -20z"/>
<path d="M3273 4822 c11 -12 16 -35 15 -73 -2 -64 5 -79 35 -79 16 0 18 3 9
12 -7 7 -12 39 -12 73 0 64 -11 85 -44 85 -18 0 -18 -1 -3 -18z"/>
<path d="M3386 4833 c-11 -3 -15 -8 -8 -12 12 -7 19 -122 8 -139 -5 -8 4 -12
30 -12 31 0 35 2 24 15 -7 8 -11 38 -10 72 4 91 5 88 -44 76z"/>
<path d="M3460 4829 c-13 -9 -12 -10 3 -5 10 3 26 -3 38 -15 17 -17 20 -31 17
-80 l-3 -59 35 0 c24 0 31 3 21 9 -9 6 -15 33 -18 72 -2 35 -9 69 -15 76 -13
16 -57 17 -78 2z"/>
<path d="M3632 4824 c-27 -18 -29 -55 -4 -77 29 -27 45 -21 25 9 -13 21 -15
32 -6 55 6 16 10 29 9 29 -1 0 -12 -7 -24 -16z"/>
<path d="M3713 4811 c8 -22 8 -36 -1 -56 -11 -24 -11 -25 9 -15 11 6 22 19 25
28 3 9 10 25 15 34 15 28 11 42 -6 28 -12 -10 -19 -10 -27 -2 -20 20 -27 13
-15 -17z"/>
<path d="M3874 4825 c8 -8 17 -15 20 -15 3 0 3 7 0 15 -4 8 -13 15 -21 15 -12
0 -12 -2 1 -15z"/>
<path d="M3958 4829 c-10 -5 -18 -14 -18 -19 0 -17 25 -11 38 10 13 22 7 25
-20 9z"/>
<path d="M4023 4819 c10 -13 13 -37 10 -70 -5 -56 7 -79 40 -79 16 0 18 3 9
12 -7 7 -12 38 -12 69 0 59 -16 89 -46 89 -13 0 -13 -3 -1 -21z"/>
<path d="M3803 4810 c-14 -34 -7 -48 39 -71 33 -17 39 -25 35 -45 -3 -20 -2
-22 10 -12 8 6 13 24 11 42 -2 24 -11 35 -38 48 -19 10 -38 28 -41 40 l-6 23
-10 -25z"/>
<path d="M2070 4747 c-17 -9 -26 -22 -28 -45 -3 -31 -2 -32 35 -31 21 1 30 3
21 6 -26 7 -33 41 -12 64 20 22 18 23 -16 6z"/>
<path d="M2760 4747 c-18 -9 -25 -21 -25 -42 0 -27 3 -30 35 -33 28 -2 32 0
18 8 -10 6 -18 22 -18 35 0 13 8 29 18 34 25 15 2 13 -28 -2z"/>
<path d="M3220 4747 c-18 -9 -25 -21 -25 -42 0 -27 4 -30 33 -33 l33 -3 -21
21 c-20 20 -20 23 -5 46 18 28 18 28 -15 11z"/>
<path d="M3975 4750 c-31 -12 -47 -37 -40 -60 5 -15 15 -20 43 -19 32 0 34 1
15 9 -27 11 -30 36 -6 62 18 20 17 20 -12 8z"/>
<path d="M3790 4703 c0 -12 5 -25 11 -28 17 -11 18 -2 4 25 -14 24 -14 24 -15
3z"/>
<path d="M3623 4683 c3 -16 -1 -32 -9 -41 -17 -16 -3 -42 22 -42 12 0 12 4 2
20 -19 29 0 42 51 34 30 -5 45 -13 51 -28 7 -20 8 -20 21 8 12 25 11 30 -6 42
-10 8 -40 14 -67 14 -26 0 -48 5 -48 10 0 6 -5 10 -11 10 -7 0 -9 -11 -6 -27z"/>
<path d="M0 1947 l0 -1947 2765 0 c1837 0 2765 3 2765 10 0 6 -4 10 -10 10 -5
0 -54 24 -107 53 -54 30 -186 100 -293 157 -107 57 -256 135 -330 175 -170 91
-719 383 -865 460 -60 32 -132 70 -160 85 -73 40 -180 97 -625 333 -58 30
-257 137 -444 236 l-339 181 -62 -48 c-34 -26 -119 -91 -188 -144 -69 -54
-130 -98 -135 -98 -5 0 -44 46 -88 103 -44 56 -233 296 -419 532 -498 631
-506 642 -555 705 -25 32 -175 223 -335 425 -159 202 -343 436 -408 519 -65
83 -129 162 -143 176 l-24 25 0 -1948z"/>
</g>
</svg>
